G75*
G70*
%OFA0B0*%
%FSLAX24Y24*%
%IPPOS*%
%LPD*%
%AMOC8*
5,1,8,0,0,1.08239X$1,22.5*
%
%ADD10C,0.0100*%
%ADD11R,0.0512X0.0197*%
%ADD12R,0.0276X0.0276*%
%ADD13R,0.0473X0.0434*%
%ADD14R,0.0434X0.0473*%
%ADD15R,0.0210X0.0700*%
%ADD16R,0.0276X0.0473*%
%ADD17R,0.0355X0.0276*%
%ADD18R,0.0423X0.0197*%
D10*
X000150Y000150D02*
X000150Y008850D01*
X006892Y008850D01*
X006892Y000150D01*
X000150Y000150D01*
D11*
X003612Y000974D03*
X003612Y001230D03*
X003612Y001486D03*
X003612Y001742D03*
X005227Y001742D03*
X005227Y001486D03*
X005227Y001230D03*
X005227Y000974D03*
D12*
X002113Y001077D03*
X001247Y001077D03*
D13*
X002299Y002413D03*
X002803Y001788D03*
X002969Y002413D03*
X002803Y001119D03*
X000910Y003255D03*
X000910Y003924D03*
X004063Y003911D03*
X004732Y003911D03*
X005515Y003954D03*
X006184Y003954D03*
X004821Y007541D03*
X004152Y007541D03*
D14*
X005065Y006824D03*
X005535Y007557D03*
X005734Y006824D03*
X006204Y007557D03*
X005426Y004802D03*
X004757Y004802D03*
X003972Y003072D03*
X003972Y002402D03*
X006184Y002674D03*
X006184Y002005D03*
D15*
X003735Y004710D03*
X003485Y004710D03*
X003225Y004710D03*
X002965Y004710D03*
X002715Y004710D03*
X002455Y004710D03*
X002205Y004710D03*
X001945Y004710D03*
X001685Y004710D03*
X001435Y004710D03*
X001435Y007550D03*
X001685Y007550D03*
X001945Y007550D03*
X002205Y007550D03*
X002455Y007550D03*
X002715Y007550D03*
X002965Y007550D03*
X003225Y007550D03*
X003485Y007550D03*
X003735Y007550D03*
D16*
X003158Y003854D03*
X002666Y003854D03*
X002174Y003854D03*
X001682Y003854D03*
X001682Y002988D03*
X002174Y002988D03*
X002666Y002988D03*
X003158Y002988D03*
D17*
X004538Y002805D03*
X004538Y002431D03*
X004538Y003179D03*
X005522Y003179D03*
X005522Y002805D03*
X005522Y002431D03*
D18*
X006191Y005416D03*
X006191Y005672D03*
X006191Y005928D03*
X006191Y006184D03*
X004567Y006184D03*
X004567Y005928D03*
X004567Y005672D03*
X004567Y005416D03*
M02*
