G75*
G70*
%OFA0B0*%
%FSLAX24Y24*%
%IPPOS*%
%LPD*%
%AMOC8*
5,1,8,0,0,1.08239X$1,22.5*
%
%ADD10C,0.0100*%
%ADD11C,0.0010*%
D10*
X000150Y000150D02*
X000150Y008850D01*
X006892Y008850D01*
X006892Y000150D01*
X000150Y000150D01*
D11*
X001497Y000878D02*
X001597Y000878D01*
X001645Y000803D02*
X001745Y000803D01*
X001745Y000953D01*
X001792Y000928D02*
X001792Y000828D01*
X001817Y000803D01*
X001867Y000803D01*
X001892Y000828D01*
X001892Y000928D01*
X001867Y000953D01*
X001817Y000953D01*
X001792Y000928D01*
X001939Y000928D02*
X001964Y000953D01*
X002014Y000953D01*
X002039Y000928D01*
X002039Y000903D01*
X002014Y000878D01*
X001964Y000878D01*
X001939Y000853D01*
X001939Y000828D01*
X001964Y000803D01*
X002014Y000803D01*
X002039Y000828D01*
X001174Y002203D02*
X001124Y002203D01*
X001099Y002228D01*
X001099Y002253D01*
X001124Y002278D01*
X001174Y002278D01*
X001199Y002303D01*
X001199Y002328D01*
X001174Y002353D01*
X001124Y002353D01*
X001099Y002328D01*
X001052Y002328D02*
X001052Y002228D01*
X001027Y002203D01*
X000977Y002203D01*
X000952Y002228D01*
X000952Y002328D01*
X000977Y002353D01*
X001027Y002353D01*
X001052Y002328D01*
X000905Y002353D02*
X000905Y002203D01*
X000805Y002203D01*
X000757Y002278D02*
X000657Y002278D01*
X000707Y002328D02*
X000707Y002228D01*
X001174Y002203D02*
X001199Y002228D01*
X001222Y003133D02*
X001222Y003283D01*
X001122Y003133D01*
X001122Y003283D01*
X001075Y003283D02*
X001000Y003283D01*
X000975Y003258D01*
X000975Y003158D01*
X001000Y003133D01*
X001075Y003133D01*
X001075Y003283D01*
X000927Y003258D02*
X000927Y003158D01*
X000902Y003133D01*
X000852Y003133D01*
X000827Y003158D01*
X000852Y003183D02*
X000827Y003208D01*
X000827Y003258D01*
X000852Y003283D01*
X000902Y003283D01*
X000927Y003258D01*
X000902Y003233D02*
X000852Y003233D01*
X000852Y003183D01*
X000902Y003183D01*
X000902Y003233D01*
X000780Y003258D02*
X000755Y003283D01*
X000705Y003283D01*
X000680Y003258D01*
X000680Y003233D01*
X000780Y003133D01*
X000680Y003133D01*
X001269Y003158D02*
X001294Y003133D01*
X001344Y003133D01*
X001369Y003158D01*
X001369Y003258D01*
X001344Y003283D01*
X001294Y003283D01*
X001269Y003258D01*
X001269Y003208D02*
X001319Y003208D01*
X001269Y003208D02*
X001269Y003158D01*
X001304Y004973D02*
X001354Y004973D01*
X001379Y004998D01*
X001354Y005048D02*
X001304Y005048D01*
X001279Y005023D01*
X001279Y004998D01*
X001304Y004973D01*
X001232Y004973D02*
X001232Y005123D01*
X001279Y005098D02*
X001304Y005123D01*
X001354Y005123D01*
X001379Y005098D01*
X001379Y005073D01*
X001354Y005048D01*
X001232Y004973D02*
X001182Y005023D01*
X001132Y004973D01*
X001132Y005123D01*
X001085Y005123D02*
X001035Y005123D01*
X001060Y005123D02*
X001060Y004973D01*
X001085Y004973D02*
X001035Y004973D01*
X000936Y004973D02*
X000936Y005123D01*
X000986Y005123D02*
X000886Y005123D01*
X000839Y005098D02*
X000839Y004998D01*
X000814Y004973D01*
X000764Y004973D01*
X000739Y004998D01*
X000692Y004973D02*
X000692Y005123D01*
X000739Y005098D02*
X000764Y005123D01*
X000814Y005123D01*
X000839Y005098D01*
X000692Y005048D02*
X000592Y005048D01*
X000592Y005123D02*
X000592Y004973D01*
X001170Y007243D02*
X001270Y007243D01*
X001220Y007243D02*
X001220Y007393D01*
X001270Y007343D01*
X001317Y007318D02*
X001342Y007293D01*
X001342Y007343D01*
X001392Y007343D01*
X001392Y007293D01*
X001342Y007293D01*
X001317Y007268D02*
X001342Y007243D01*
X001392Y007243D01*
X001417Y007268D01*
X001417Y007368D01*
X001392Y007393D01*
X001342Y007393D01*
X001317Y007368D01*
X001317Y007318D01*
X001465Y007268D02*
X001465Y007368D01*
X001490Y007393D01*
X001565Y007393D01*
X001565Y007243D01*
X001490Y007243D01*
X001465Y007268D01*
X001612Y007243D02*
X001612Y007393D01*
X001712Y007393D02*
X001612Y007243D01*
X001712Y007243D02*
X001712Y007393D01*
X001759Y007368D02*
X001784Y007393D01*
X001834Y007393D01*
X001859Y007368D01*
X001859Y007268D01*
X001834Y007243D01*
X001784Y007243D01*
X001759Y007268D01*
X001759Y007318D01*
X001809Y007318D01*
X002245Y007268D02*
X002270Y007243D01*
X002320Y007243D01*
X002345Y007268D01*
X002345Y007368D01*
X002320Y007393D01*
X002270Y007393D01*
X002245Y007368D01*
X002392Y007368D02*
X002417Y007393D01*
X002467Y007393D01*
X002492Y007368D01*
X002492Y007268D01*
X002467Y007243D01*
X002417Y007243D01*
X002392Y007268D01*
X002392Y007318D01*
X002442Y007318D01*
X002539Y007318D02*
X002564Y007293D01*
X002639Y007293D01*
X002639Y007243D02*
X002639Y007393D01*
X002564Y007393D01*
X002539Y007368D01*
X002539Y007318D01*
X002955Y007278D02*
X002955Y007378D01*
X002980Y007403D01*
X003055Y007403D01*
X003055Y007253D01*
X002980Y007253D01*
X002955Y007278D01*
X003102Y007278D02*
X003102Y007328D01*
X003152Y007328D01*
X003202Y007278D02*
X003177Y007253D01*
X003127Y007253D01*
X003102Y007278D01*
X003202Y007278D02*
X003202Y007378D01*
X003177Y007403D01*
X003127Y007403D01*
X003102Y007378D01*
X003249Y007378D02*
X003249Y007328D01*
X003274Y007303D01*
X003349Y007303D01*
X003349Y007253D02*
X003349Y007403D01*
X003274Y007403D01*
X003249Y007378D01*
X003677Y007388D02*
X003677Y007338D01*
X003702Y007313D01*
X003777Y007313D01*
X003777Y007263D02*
X003777Y007413D01*
X003702Y007413D01*
X003677Y007388D01*
X003727Y007313D02*
X003677Y007263D01*
X003825Y007263D02*
X003925Y007263D01*
X003925Y007413D01*
X003972Y007388D02*
X003997Y007413D01*
X004047Y007413D01*
X004072Y007388D01*
X004072Y007288D01*
X004047Y007263D01*
X003997Y007263D01*
X003972Y007288D01*
X004119Y007263D02*
X004119Y007413D01*
X004169Y007363D01*
X004219Y007413D01*
X004219Y007263D01*
X005847Y006478D02*
X005947Y006478D01*
X005994Y006529D02*
X006094Y006428D01*
X006094Y006403D01*
X005994Y006403D01*
X005994Y006529D02*
X005994Y006554D01*
X006094Y006554D01*
X006141Y006554D02*
X006141Y006529D01*
X006241Y006428D01*
X006241Y006403D01*
X006141Y006403D01*
X006141Y006554D02*
X006241Y006554D01*
X006289Y006554D02*
X006289Y006428D01*
X006314Y006403D01*
X006364Y006403D01*
X006389Y006428D01*
X006389Y006554D01*
X006436Y006529D02*
X006436Y006504D01*
X006461Y006478D01*
X006536Y006478D01*
X006536Y006403D02*
X006461Y006403D01*
X006436Y006428D01*
X006436Y006453D01*
X006461Y006478D01*
X006436Y006529D02*
X006461Y006554D01*
X006536Y006554D01*
X006536Y006403D01*
X005897Y006428D02*
X005897Y006529D01*
X006094Y004604D02*
X006094Y004579D01*
X006194Y004478D01*
X006194Y004453D01*
X006094Y004453D01*
X006047Y004528D02*
X005947Y004528D01*
X006094Y004604D02*
X006194Y004604D01*
X006241Y004604D02*
X006241Y004579D01*
X006341Y004478D01*
X006341Y004453D01*
X006241Y004453D01*
X006389Y004478D02*
X006389Y004604D01*
X006341Y004604D02*
X006241Y004604D01*
X006389Y004478D02*
X006414Y004453D01*
X006464Y004453D01*
X006489Y004478D01*
X006489Y004604D01*
X006536Y004579D02*
X006536Y004554D01*
X006561Y004528D01*
X006636Y004528D01*
X006636Y004453D02*
X006561Y004453D01*
X006536Y004478D01*
X006536Y004503D01*
X006561Y004528D01*
X006536Y004579D02*
X006561Y004604D01*
X006636Y004604D01*
X006636Y004453D01*
X005214Y002339D02*
X005139Y002339D01*
X005114Y002313D01*
X005114Y002288D01*
X005139Y002263D01*
X005214Y002263D01*
X005214Y002188D02*
X005214Y002339D01*
X005214Y002188D02*
X005139Y002188D01*
X005114Y002213D01*
X005114Y002238D01*
X005139Y002263D01*
X005067Y002263D02*
X004967Y002263D01*
X004967Y002288D02*
X004967Y002188D01*
X004870Y002188D02*
X004870Y002339D01*
X004920Y002339D02*
X004820Y002339D01*
X004772Y002339D02*
X004672Y002339D01*
X004722Y002339D02*
X004722Y002188D01*
X004625Y002263D02*
X004525Y002263D01*
X004575Y002313D02*
X004575Y002213D01*
X004967Y002288D02*
X005017Y002339D01*
X005067Y002288D01*
X005067Y002188D01*
M02*
