G75*
G70*
%OFA0B0*%
%FSLAX24Y24*%
%IPPOS*%
%LPD*%
%AMOC8*
5,1,8,0,0,1.08239X$1,22.5*
%
%ADD10C,0.0100*%
%ADD11R,0.1181X0.0945*%
%ADD12R,0.1181X0.0591*%
%ADD13R,0.0500X0.1000*%
%ADD14R,0.1000X0.0500*%
%ADD15OC8,0.0277*%
%ADD16C,0.0160*%
%ADD17C,0.0120*%
D10*
X000150Y000150D02*
X000150Y008850D01*
X006892Y008850D01*
X006892Y000150D01*
X000150Y000150D01*
X000389Y000370D02*
X000389Y000453D01*
X000819Y000453D01*
X000819Y000803D01*
X000919Y000803D01*
X000919Y000453D01*
X001389Y000453D01*
X001427Y000464D01*
X001461Y000483D01*
X001489Y000511D01*
X001509Y000545D01*
X001519Y000584D01*
X001519Y000803D01*
X000919Y000803D01*
X000919Y000903D01*
X001519Y000903D01*
X001519Y001123D01*
X001509Y001161D01*
X001489Y001195D01*
X001461Y001223D01*
X001427Y001243D01*
X001389Y001253D01*
X000919Y001253D01*
X000919Y000903D01*
X000819Y000903D01*
X000819Y001253D01*
X000389Y001253D01*
X000389Y001265D01*
X001429Y001265D01*
X001527Y001364D01*
X001527Y002003D01*
X001429Y002101D01*
X000389Y002101D01*
X000389Y003383D01*
X000809Y003383D01*
X000809Y003733D01*
X000909Y003733D01*
X000909Y003383D01*
X001379Y003383D01*
X001417Y003394D01*
X001451Y003413D01*
X001479Y003441D01*
X001499Y003475D01*
X001509Y003514D01*
X001509Y003733D01*
X000909Y003733D01*
X000909Y003833D01*
X001509Y003833D01*
X001509Y004053D01*
X001500Y004087D01*
X001527Y004114D01*
X001527Y004753D01*
X001429Y004851D01*
X000389Y004851D01*
X000389Y008615D01*
X001259Y008615D01*
X001259Y008193D01*
X001609Y008193D01*
X001609Y008093D01*
X001709Y008093D01*
X001709Y007493D01*
X001929Y007493D01*
X001967Y007504D01*
X002001Y007523D01*
X002012Y007533D01*
X002070Y007475D01*
X002709Y007475D01*
X002754Y007521D01*
X002800Y007475D01*
X003439Y007475D01*
X003474Y007511D01*
X003510Y007475D01*
X004149Y007475D01*
X004247Y007574D01*
X004247Y008615D01*
X006674Y008615D01*
X006674Y006301D01*
X005630Y006301D01*
X005531Y006203D01*
X005531Y006141D01*
X002925Y006141D01*
X002791Y006008D01*
X002448Y005664D01*
X002177Y005934D01*
X002177Y006334D01*
X002256Y006413D01*
X002256Y006667D01*
X002076Y006847D01*
X001822Y006847D01*
X001642Y006667D01*
X001642Y006413D01*
X001721Y006334D01*
X001721Y005746D01*
X002162Y005304D01*
X002162Y005193D01*
X002342Y005013D01*
X002596Y005013D01*
X002776Y005193D01*
X002776Y005348D01*
X003114Y005685D01*
X005531Y005685D01*
X005531Y005564D01*
X005592Y005503D01*
X005531Y005443D01*
X005531Y005358D01*
X003726Y005358D01*
X003726Y005457D01*
X003546Y005637D01*
X003292Y005637D01*
X003112Y005457D01*
X003112Y005203D01*
X003292Y005023D01*
X003404Y005023D01*
X003525Y004902D01*
X005531Y004902D01*
X005531Y004804D01*
X005630Y004705D01*
X006674Y004705D01*
X006674Y002931D01*
X005459Y002931D01*
X005361Y002833D01*
X005361Y001749D01*
X005459Y001650D01*
X005532Y001650D01*
X005495Y001613D01*
X005495Y001359D01*
X005595Y001260D01*
X005509Y001260D01*
X005471Y001249D01*
X005437Y001230D01*
X005409Y001202D01*
X005389Y001168D01*
X005379Y001129D01*
X005379Y000864D01*
X006069Y000864D01*
X006069Y000764D01*
X005379Y000764D01*
X005379Y000499D01*
X005389Y000461D01*
X005409Y000427D01*
X005437Y000399D01*
X005471Y000379D01*
X005506Y000370D01*
X000389Y000370D01*
X000389Y000446D02*
X005398Y000446D01*
X005379Y000544D02*
X001509Y000544D01*
X001519Y000643D02*
X005379Y000643D01*
X005379Y000741D02*
X001519Y000741D01*
X001519Y000938D02*
X005379Y000938D01*
X005379Y001037D02*
X001519Y001037D01*
X001516Y001135D02*
X005380Y001135D01*
X005444Y001234D02*
X001443Y001234D01*
X001496Y001332D02*
X005522Y001332D01*
X005495Y001431D02*
X001527Y001431D01*
X001527Y001529D02*
X005495Y001529D01*
X005510Y001628D02*
X001527Y001628D01*
X001527Y001726D02*
X005383Y001726D01*
X005361Y001825D02*
X001527Y001825D01*
X001527Y001923D02*
X005361Y001923D01*
X005361Y002022D02*
X001509Y002022D01*
X000919Y001234D02*
X000819Y001234D01*
X000819Y001135D02*
X000919Y001135D01*
X000919Y001037D02*
X000819Y001037D01*
X000819Y000938D02*
X000919Y000938D01*
X000919Y000840D02*
X006069Y000840D01*
X006069Y000864D02*
X006069Y001260D01*
X006010Y001260D01*
X006109Y001359D01*
X006109Y001442D01*
X006250Y001583D01*
X006317Y001650D01*
X006674Y001650D01*
X006674Y001260D01*
X006169Y001260D01*
X006169Y000864D01*
X006069Y000864D01*
X006069Y000938D02*
X006169Y000938D01*
X006169Y001037D02*
X006069Y001037D01*
X006069Y001135D02*
X006169Y001135D01*
X006169Y001234D02*
X006069Y001234D01*
X006082Y001332D02*
X006674Y001332D01*
X006674Y001431D02*
X006109Y001431D01*
X006196Y001529D02*
X006674Y001529D01*
X006674Y001628D02*
X006295Y001628D01*
X005361Y002120D02*
X000389Y002120D01*
X000389Y002219D02*
X005361Y002219D01*
X005361Y002317D02*
X000389Y002317D01*
X000389Y002416D02*
X005361Y002416D01*
X005361Y002514D02*
X000389Y002514D01*
X000389Y002613D02*
X005361Y002613D01*
X005361Y002711D02*
X000389Y002711D01*
X000389Y002810D02*
X005361Y002810D01*
X005436Y002908D02*
X000389Y002908D01*
X000389Y003007D02*
X006674Y003007D01*
X006674Y003105D02*
X000389Y003105D01*
X000389Y003204D02*
X006674Y003204D01*
X006674Y003302D02*
X000389Y003302D01*
X000809Y003401D02*
X000909Y003401D01*
X000909Y003499D02*
X000809Y003499D01*
X000809Y003598D02*
X000909Y003598D01*
X000909Y003696D02*
X000809Y003696D01*
X000909Y003795D02*
X006674Y003795D01*
X006674Y003893D02*
X001509Y003893D01*
X001509Y003992D02*
X006674Y003992D01*
X006674Y004090D02*
X001504Y004090D01*
X001527Y004189D02*
X006674Y004189D01*
X006674Y004287D02*
X001527Y004287D01*
X001527Y004386D02*
X006674Y004386D01*
X006674Y004484D02*
X001527Y004484D01*
X001527Y004583D02*
X006674Y004583D01*
X006674Y004681D02*
X001527Y004681D01*
X001501Y004780D02*
X005555Y004780D01*
X005531Y004878D02*
X000389Y004878D01*
X000389Y004977D02*
X003450Y004977D01*
X003240Y005075D02*
X002659Y005075D01*
X002757Y005174D02*
X003141Y005174D01*
X003112Y005272D02*
X002776Y005272D01*
X002799Y005371D02*
X003112Y005371D01*
X003125Y005469D02*
X002898Y005469D01*
X002996Y005568D02*
X003223Y005568D01*
X003095Y005666D02*
X005531Y005666D01*
X005531Y005568D02*
X003615Y005568D01*
X003714Y005469D02*
X005558Y005469D01*
X005531Y005371D02*
X003726Y005371D01*
X003419Y005330D02*
X003411Y005330D01*
X003413Y005327D02*
X003416Y005330D01*
X003419Y005330D01*
X002844Y006060D02*
X002177Y006060D01*
X002177Y005962D02*
X002745Y005962D01*
X002647Y005863D02*
X002248Y005863D01*
X002347Y005765D02*
X002548Y005765D01*
X002450Y005666D02*
X002445Y005666D01*
X002162Y005272D02*
X000389Y005272D01*
X000389Y005174D02*
X002181Y005174D01*
X002280Y005075D02*
X000389Y005075D01*
X000389Y005371D02*
X002096Y005371D01*
X001997Y005469D02*
X000389Y005469D01*
X000389Y005568D02*
X001899Y005568D01*
X001800Y005666D02*
X000389Y005666D01*
X000389Y005765D02*
X001721Y005765D01*
X001721Y005863D02*
X000389Y005863D01*
X000389Y005962D02*
X001721Y005962D01*
X001721Y006060D02*
X000389Y006060D01*
X000389Y006159D02*
X001721Y006159D01*
X001721Y006257D02*
X000389Y006257D01*
X000389Y006356D02*
X001699Y006356D01*
X001642Y006454D02*
X000389Y006454D01*
X000389Y006553D02*
X001642Y006553D01*
X001642Y006651D02*
X000389Y006651D01*
X000389Y006750D02*
X001725Y006750D01*
X002173Y006750D02*
X006674Y006750D01*
X006674Y006848D02*
X000389Y006848D01*
X000389Y006947D02*
X006674Y006947D01*
X006674Y007045D02*
X000389Y007045D01*
X000389Y007144D02*
X006674Y007144D01*
X006674Y007242D02*
X000389Y007242D01*
X000389Y007341D02*
X006674Y007341D01*
X006674Y007439D02*
X000389Y007439D01*
X000389Y007538D02*
X001303Y007538D01*
X001289Y007551D02*
X001317Y007523D01*
X001351Y007504D01*
X001390Y007493D01*
X001609Y007493D01*
X001609Y008093D01*
X001259Y008093D01*
X001259Y007624D01*
X001270Y007585D01*
X001289Y007551D01*
X001259Y007636D02*
X000389Y007636D01*
X000389Y007735D02*
X001259Y007735D01*
X001259Y007833D02*
X000389Y007833D01*
X000389Y007932D02*
X001259Y007932D01*
X001259Y008030D02*
X000389Y008030D01*
X000389Y008129D02*
X001609Y008129D01*
X001609Y008030D02*
X001709Y008030D01*
X001709Y007932D02*
X001609Y007932D01*
X001609Y007833D02*
X001709Y007833D01*
X001709Y007735D02*
X001609Y007735D01*
X001609Y007636D02*
X001709Y007636D01*
X001709Y007538D02*
X001609Y007538D01*
X001259Y008227D02*
X000389Y008227D01*
X000389Y008326D02*
X001259Y008326D01*
X001259Y008424D02*
X000389Y008424D01*
X000389Y008523D02*
X001259Y008523D01*
X002256Y006651D02*
X006674Y006651D01*
X006674Y006553D02*
X002256Y006553D01*
X002256Y006454D02*
X006674Y006454D01*
X006674Y006356D02*
X002199Y006356D01*
X002177Y006257D02*
X005586Y006257D01*
X005531Y006159D02*
X002177Y006159D01*
X001509Y003696D02*
X006674Y003696D01*
X006674Y003598D02*
X001509Y003598D01*
X001506Y003499D02*
X006674Y003499D01*
X006674Y003401D02*
X001430Y003401D01*
X000919Y000741D02*
X000819Y000741D01*
X000819Y000643D02*
X000919Y000643D01*
X000919Y000544D02*
X000819Y000544D01*
X004212Y007538D02*
X006674Y007538D01*
X006674Y007636D02*
X004247Y007636D01*
X004247Y007735D02*
X006674Y007735D01*
X006674Y007833D02*
X004247Y007833D01*
X004247Y007932D02*
X006674Y007932D01*
X006674Y008030D02*
X004247Y008030D01*
X004247Y008129D02*
X006674Y008129D01*
X006674Y008227D02*
X004247Y008227D01*
X004247Y008326D02*
X006674Y008326D01*
X006674Y008424D02*
X004247Y008424D01*
X004247Y008523D02*
X006674Y008523D01*
D11*
X006119Y002291D03*
D12*
X006119Y000814D03*
D13*
X003829Y008143D03*
X003119Y008143D03*
X002389Y008143D03*
X001659Y008143D03*
D14*
X000859Y004433D03*
X000859Y003783D03*
X000859Y001683D03*
X000869Y000853D03*
X006199Y005123D03*
X006199Y005883D03*
D15*
X006169Y005130D03*
X006199Y003560D03*
X005802Y001486D03*
X005779Y000900D03*
X003489Y002220D03*
X003579Y003910D03*
X003419Y005330D03*
X002469Y005320D03*
X001949Y006540D03*
X002399Y008173D03*
X003129Y008153D03*
X003839Y008173D03*
X004870Y007886D03*
X004582Y006430D03*
X000924Y004430D03*
X001090Y001666D03*
D16*
X001090Y001663D01*
X000859Y001683D01*
X001090Y001666D02*
X001163Y001739D01*
X004499Y000900D02*
X005779Y000900D01*
X005802Y001486D02*
X006109Y001793D01*
X006109Y002281D01*
D17*
X006119Y002291D01*
X006199Y005123D02*
X006233Y005130D01*
X006169Y005130D01*
X003619Y005130D01*
X003419Y005330D01*
X003019Y005913D02*
X006219Y005913D01*
X006199Y005883D01*
X003829Y008143D02*
X003839Y008173D01*
X003129Y008153D02*
X003119Y008143D01*
X002399Y008173D02*
X002389Y008143D01*
X001949Y006540D02*
X001949Y005840D01*
X002469Y005320D01*
X002469Y005363D01*
X003019Y005913D01*
X000924Y004430D02*
X000852Y004430D01*
X000859Y004433D01*
M02*
